<svg xmlns="http://www.w3.org/2000/svg" width="410" height="520" style="background-color: white;">
    <rect x="20" y="35" width="140" height="80" stroke="black" fill="none"></rect>
    <text x="20" y="25" alignment-baseline="middle" fill="black" font-style="italic" style="font-size: 0.8em;">Person class</text>
    <rect x="100" y="55" width="40" height="40" stroke="black" fill="none"></rect>
    <text x="90" y="75" text-anchor="end" alignment-baseline="middle" fill="black">count</text>
    <text x="120" y="75" text-anchor="middle" alignment-baseline="middle" fill="black">2</text>
    <rect x="70" y="135" width="110" height="140" stroke="black" fill="none"></rect>
    <text x="60" y="205" text-anchor="end" alignment-baseline="middle" fill="black">main</text>
    <rect x="120" y="155" width="40" height="40" stroke="black" fill="none"></rect>
    <text x="110" y="175" text-anchor="end" alignment-baseline="middle" fill="black">p1</text>
    <rect x="120" y="215" width="40" height="40" stroke="black" fill="none"></rect>
    <text x="110" y="235" text-anchor="end" alignment-baseline="middle" fill="black">p2</text>
    <rect x="260" y="35" width="130" height="140" stroke="black" fill="none"></rect>
    <text x="260" y="25" alignment-baseline="middle" fill="black" font-style="italic" style="font-size: 0.8em;">Person</text>
    <rect x="330" y="55" width="40" height="40" stroke="black" fill="none"></rect>
    <text x="320" y="75" text-anchor="end" alignment-baseline="middle" fill="black">name</text>
    <rect x="320" y="115" width="50" height="40" stroke="black" fill="none"></rect>
    <text x="310" y="135" text-anchor="end" alignment-baseline="middle" fill="black">pin</text>
    <text x="345" y="135" text-anchor="middle" alignment-baseline="middle" fill="black">1989</text>
    <rect x="260" y="210" width="100" height="40" stroke="black" fill="none"></rect>
    <text x="260" y="200" alignment-baseline="middle" fill="black" font-style="italic" style="font-size: 0.8em;">String</text>
    <text x="310" y="230" text-anchor="middle" alignment-baseline="middle" fill="black">"Taylor"</text>
    <rect x="260" y="285" width="130" height="140" stroke="black" fill="none"></rect>
    <text x="260" y="275" alignment-baseline="middle" fill="black" font-style="italic" style="font-size: 0.8em;">Person</text>
    <rect x="330" y="305" width="40" height="40" stroke="black" fill="none"></rect>
    <text x="320" y="325" text-anchor="end" alignment-baseline="middle" fill="black">name</text>
    <rect x="320" y="365" width="50" height="40" stroke="black" fill="none"></rect>
    <text x="310" y="385" text-anchor="end" alignment-baseline="middle" fill="black">pin</text>
    <text x="345" y="385" text-anchor="middle" alignment-baseline="middle" fill="black">8713</text>
    <rect x="260" y="460" width="100" height="40" stroke="black" fill="none"></rect>
    <text x="260" y="450" alignment-baseline="middle" fill="black" font-style="italic" style="font-size: 0.8em;">String</text>
    <text x="310" y="480" text-anchor="middle" alignment-baseline="middle" fill="black">"Travis"</text>
    <defs>
        <marker id="arrow" markerWidth="16" markerHeight="16" viewBox="0 0 12 12" refX="6" refY="6" orient="auto">
            <path d="M2,2 L10,6 L2,10 L6,6 L2,2" fill="black"></path>
        </marker>
    </defs>
    <circle cx="140" cy="175" r="2" fill="black"></circle>
    <line x1="140" y1="175" x2="252" y2="101" stroke="black" marker-end="url(#arrow)"></line>
    <circle cx="140" cy="235" r="2" fill="black"></circle>
    <line x1="140" y1="235" x2="252" y2="351" stroke="black" marker-end="url(#arrow)"></line>
    <circle cx="350" cy="75" r="2" fill="black"></circle>
    <line x1="350" y1="75" x2="228" y2="150.5" stroke="black"></line>
    <line x1="228" y1="150.5" x2="252" y2="226" stroke="black" marker-end="url(#arrow)"></line>
    <circle cx="350" cy="325" r="2" fill="black"></circle>
    <line x1="350" y1="325" x2="228" y2="400.5" stroke="black"></line>
    <line x1="228" y1="400.5" x2="252" y2="476" stroke="black" marker-end="url(#arrow)"></line>
</svg>
