<svg width="290" height="370" style="background-color: white;">
    <rect x="50" y="20" width="40" height="40" stroke="black" fill="none"></rect>
    <text x="40" y="40" text-anchor="end" alignment-baseline="middle" fill="black">p1</text>
    <rect x="50" y="80" width="40" height="40" stroke="black" fill="none"></rect>
    <text x="40" y="100" text-anchor="end" alignment-baseline="middle" fill="black">p2</text>
    <rect x="170" y="35" width="100" height="140" stroke="black" fill="none"></rect>
    <text x="170" y="25" alignment-baseline="middle" fill="black" font-style="italic" style="font-size: 0.8em;">Point</text>
    <rect x="210" y="55" width="40" height="40" stroke="black" fill="none"></rect>
    <text x="200" y="75" text-anchor="end" alignment-baseline="middle" fill="black">x</text>
    <text x="230" y="75" text-anchor="middle" alignment-baseline="middle" fill="black">11</text>
    <rect x="210" y="115" width="40" height="40" stroke="black" fill="none"></rect>
    <text x="200" y="135" text-anchor="end" alignment-baseline="middle" fill="black">y</text>
    <text x="230" y="135" text-anchor="middle" alignment-baseline="middle" fill="black">12</text>
    <rect x="170" y="210" width="100" height="140" stroke="black" fill="none"></rect>
    <text x="170" y="200" alignment-baseline="middle" fill="black" font-style="italic" style="font-size: 0.8em;">Point</text>
    <rect x="210" y="230" width="40" height="40" stroke="black" fill="none"></rect>
    <text x="200" y="250" text-anchor="end" alignment-baseline="middle" fill="black">x</text>
    <text x="230" y="250" text-anchor="middle" alignment-baseline="middle" fill="black">13</text>
    <rect x="210" y="290" width="40" height="40" stroke="black" fill="none"></rect>
    <text x="200" y="310" text-anchor="end" alignment-baseline="middle" fill="black">y</text>
    <text x="230" y="310" text-anchor="middle" alignment-baseline="middle" fill="black">14</text>
    <defs>
        <marker id="arrow" markerWidth="16" markerHeight="16" viewBox="0 0 12 12" refX="6" refY="6" orient="auto">
            <path d="M2,2 L10,6 L2,10 L6,6 L2,2" fill="black"></path>
        </marker>
    </defs>
    <circle cx="70" cy="40" r="2" fill="black"></circle>
    <line x1="70" y1="40" x2="162" y2="101" stroke="black" marker-end="url(#arrow)"></line>
    <circle cx="70" cy="100" r="2" fill="black"></circle>
    <line x1="70" y1="100" x2="162" y2="276" stroke="black" marker-end="url(#arrow)"></line>
</svg>
