<svg width="330" height="110" style="background-color: white;">
    <rect x="70" y="20" width="40" height="40" stroke="black" fill="none"></rect>
    <text x="60" y="40" text-anchor="end" alignment-baseline="middle" fill="black">data</text>
    <rect x="190" y="35" width="120" height="40" stroke="black" fill="none"></rect>
    <text x="190" y="25" alignment-baseline="middle" fill="black" font-style="italic" style="font-size: 0.8em;">double[]</text>
    <line x1="230" y1="35" x2="230" y2="75" stroke="black"></line>
    <line x1="270" y1="35" x2="270" y2="75" stroke="black"></line>
    <rect x="190" y="35" width="40" height="40" stroke="" fill="none"></rect>
    <text x="210" y="55" text-anchor="middle" alignment-baseline="middle" fill="black">1.2</text>
    <text x="210" y="85" text-anchor="middle" alignment-baseline="middle" fill="black" font-style="italic" style="font-size: 0.8em;">0</text>
    <rect x="230" y="35" width="40" height="40" stroke="" fill="none"></rect>
    <text x="250" y="55" text-anchor="middle" alignment-baseline="middle" fill="black">3.4</text>
    <text x="250" y="85" text-anchor="middle" alignment-baseline="middle" fill="black" font-style="italic" style="font-size: 0.8em;">1</text>
    <rect x="270" y="35" width="40" height="40" stroke="" fill="none"></rect>
    <text x="290" y="55" text-anchor="middle" alignment-baseline="middle" fill="black">5.6</text>
    <text x="290" y="85" text-anchor="middle" alignment-baseline="middle" fill="black" font-style="italic" style="font-size: 0.8em;">2</text>
    <defs>
        <marker id="arrow" markerWidth="16" markerHeight="16" viewBox="0 0 12 12" refX="6" refY="6" orient="auto">
            <path d="M2,2 L10,6 L2,10 L6,6 L2,2" fill="black"></path>
        </marker>
    </defs>
    <circle cx="90" cy="40" r="2" fill="black"></circle>
    <line x1="90" y1="40" x2="182" y2="51" stroke="black" marker-end="url(#arrow)"></line>
</svg>
