<svg xmlns="http://www.w3.org/2000/svg" width="310" height="260" style="background-color: white;">
    <rect x="80" y="20" width="40" height="40" stroke="black" fill="none"></rect>
    <text x="70" y="40" text-anchor="end" alignment-baseline="middle" fill="black">words</text>
    <rect x="200" y="35" width="80" height="40" stroke="black" fill="none"></rect>
    <text x="200" y="25" alignment-baseline="middle" fill="black" font-style="italic" style="font-size: 0.8em;">String[]</text>
    <line x1="240" y1="35" x2="240" y2="75" stroke="black"></line>
    <rect x="200" y="35" width="40" height="40" stroke="" fill="none"></rect>
    <text x="220" y="85" text-anchor="middle" alignment-baseline="middle" fill="black" font-style="italic" style="font-size: 0.8em;">0</text>
    <rect x="240" y="35" width="40" height="40" stroke="" fill="none"></rect>
    <text x="260" y="85" text-anchor="middle" alignment-baseline="middle" fill="black" font-style="italic" style="font-size: 0.8em;">1</text>
    <rect x="200" y="125" width="90" height="40" stroke="black" fill="none"></rect>
    <text x="200" y="115" alignment-baseline="middle" fill="black" font-style="italic" style="font-size: 0.8em;">String</text>
    <text x="245" y="145" text-anchor="middle" alignment-baseline="middle" fill="black">"Hello"</text>
    <rect x="200" y="200" width="90" height="40" stroke="black" fill="none"></rect>
    <text x="200" y="190" alignment-baseline="middle" fill="black" font-style="italic" style="font-size: 0.8em;">String</text>
    <text x="245" y="220" text-anchor="middle" alignment-baseline="middle" fill="black">"World"</text>
    <defs>
        <marker id="arrow" markerWidth="16" markerHeight="16" viewBox="0 0 12 12" refX="6" refY="6" orient="auto">
            <path d="M2,2 L10,6 L2,10 L6,6 L2,2" fill="black"></path>
        </marker>
    </defs>
    <circle cx="100" cy="40" r="2" fill="black"></circle>
    <line x1="100" y1="40" x2="192" y2="51" stroke="black" marker-end="url(#arrow)"></line>
    <circle cx="220" cy="55" r="2" fill="black"></circle>
    <line x1="220" y1="55" x2="168" y2="98" stroke="black"></line>
    <line x1="168" y1="98" x2="192" y2="141" stroke="black" marker-end="url(#arrow)"></line>
    <circle cx="260" cy="55" r="2" fill="black"></circle>
    <line x1="260" y1="55" x2="168" y2="135.5" stroke="black"></line>
    <line x1="168" y1="135.5" x2="192" y2="216" stroke="black" marker-end="url(#arrow)"></line>
</svg>
